<svg width="1440" height="900" viewBox="0 0 1440 900" fill="none" xmlns="http://www.w3.org/2000/svg" role="img" aria-labelledby="boardPreviewTitle boardPreviewDesc">
  <title id="boardPreviewTitle">Soundboard board view preview</title>
  <desc id="boardPreviewDesc">An overview illustration of the Soundboard interface showing the board sidebar, pad grid, and inspector panel.</desc>
  <rect width="1440" height="900" fill="#EFE5D4"/>
  <rect x="48" y="48" width="1344" height="804" rx="28" fill="#FBF8F2" stroke="rgba(23,20,18,0.11)"/>
  <rect x="48" y="48" width="296" height="804" rx="28" fill="#F5EEE2"/>
  <text x="92" y="110" fill="#6C6257" font-family="'IBM Plex Mono', monospace" font-size="16" letter-spacing="5">SOUNDBOARD</text>
  <text x="92" y="158" fill="#171412" font-family="'Avenir Next', 'Helvetica Neue', sans-serif" font-size="42" font-weight="700">Boards</text>
  <rect x="80" y="220" width="232" height="78" rx="22" fill="#F2D1CA" stroke="#D95B43" stroke-opacity="0.35"/>
  <text x="108" y="266" fill="#171412" font-family="'Avenir Next', 'Helvetica Neue', sans-serif" font-size="28" font-weight="600">Stream</text>
  <text x="236" y="266" fill="#6C6257" font-family="'IBM Plex Mono', monospace" font-size="14" letter-spacing="3">LIVE</text>
  <rect x="80" y="316" width="232" height="78" rx="22" fill="rgba(255,255,255,0.65)"/>
  <text x="108" y="362" fill="#6C6257" font-family="'Avenir Next', 'Helvetica Neue', sans-serif" font-size="28" font-weight="600">Game Night</text>
  <text x="228" y="362" fill="#6C6257" font-family="'IBM Plex Mono', monospace" font-size="14" letter-spacing="3">IDLE</text>
  <rect x="80" y="412" width="232" height="78" rx="22" fill="rgba(255,255,255,0.65)"/>
  <text x="108" y="458" fill="#6C6257" font-family="'Avenir Next', 'Helvetica Neue', sans-serif" font-size="28" font-weight="600">Memes</text>
  <text x="250" y="458" fill="#6C6257" font-family="'IBM Plex Mono', monospace" font-size="14" letter-spacing="3">IDLE</text>
  <rect x="80" y="740" width="232" height="68" rx="34" fill="#171412"/>
  <text x="130" y="783" fill="#FBF8F2" font-family="'Avenir Next', 'Helvetica Neue', sans-serif" font-size="24" font-weight="600">Create Board</text>
  <text x="404" y="110" fill="#6C6257" font-family="'IBM Plex Mono', monospace" font-size="16" letter-spacing="5">ACTIVE BOARD</text>
  <text x="404" y="168" fill="#171412" font-family="'Avenir Next', 'Helvetica Neue', sans-serif" font-size="56" font-weight="700">Stream</text>
  <text x="404" y="212" fill="#6C6257" font-family="'Avenir Next', 'Helvetica Neue', sans-serif" font-size="22">Stored locally in this browser and restored on the next visit.</text>
  <rect x="404" y="248" width="130" height="56" rx="28" fill="white" stroke="rgba(23,20,18,0.11)"/>
  <text x="442" y="283" fill="#171412" font-family="'Avenir Next', 'Helvetica Neue', sans-serif" font-size="20" font-weight="600">Rename</text>
  <rect x="548" y="248" width="130" height="56" rx="28" fill="#F2D1CA" stroke="rgba(217,91,67,0.3)"/>
  <text x="590" y="283" fill="#171412" font-family="'Avenir Next', 'Helvetica Neue', sans-serif" font-size="20" font-weight="600">Remove</text>
  <rect x="1084" y="96" width="248" height="56" rx="28" fill="white" stroke="rgba(23,20,18,0.11)"/>
  <circle cx="1120" cy="124" r="10" fill="#D95B43"/>
  <text x="1148" y="130" fill="#6C6257" font-family="'Avenir Next', 'Helvetica Neue', sans-serif" font-size="20">Allow concurrent playback</text>
  <rect x="404" y="340" width="198" height="198" rx="26" fill="white" stroke="rgba(23,20,18,0.08)"/>
  <rect x="424" y="360" width="158" height="158" rx="18" fill="#D95B43"/>
  <text x="503" y="440" text-anchor="middle" fill="white" font-family="'Avenir Next', 'Helvetica Neue', sans-serif" font-size="34" font-weight="700">Air Horn</text>
  <text x="503" y="576" text-anchor="middle" fill="#171412" font-family="'Avenir Next', 'Helvetica Neue', sans-serif" font-size="18">Edit</text>
  <rect x="620" y="340" width="198" height="198" rx="26" fill="white" stroke="rgba(23,20,18,0.08)"/>
  <rect x="640" y="360" width="158" height="158" rx="18" fill="#1D8F6E"/>
  <text x="719" y="428" text-anchor="middle" fill="white" font-family="'Avenir Next', 'Helvetica Neue', sans-serif" font-size="32" font-weight="700">Laugh</text>
  <text x="719" y="466" text-anchor="middle" fill="white" font-family="'Avenir Next', 'Helvetica Neue', sans-serif" font-size="32" font-weight="700">Track</text>
  <text x="719" y="576" text-anchor="middle" fill="#171412" font-family="'Avenir Next', 'Helvetica Neue', sans-serif" font-size="18">Edit</text>
  <rect x="836" y="340" width="198" height="198" rx="26" fill="white" stroke="rgba(23,20,18,0.08)"/>
  <rect x="856" y="360" width="158" height="158" rx="18" fill="#4F6ACF"/>
  <text x="935" y="440" text-anchor="middle" fill="white" font-family="'Avenir Next', 'Helvetica Neue', sans-serif" font-size="34" font-weight="700">Drum</text>
  <text x="935" y="576" text-anchor="middle" fill="#171412" font-family="'Avenir Next', 'Helvetica Neue', sans-serif" font-size="18">Edit</text>
  <rect x="404" y="556" width="198" height="198" rx="26" fill="white" stroke="rgba(23,20,18,0.08)"/>
  <rect x="424" y="576" width="158" height="158" rx="18" fill="#C66C25"/>
  <text x="503" y="656" text-anchor="middle" fill="white" font-family="'Avenir Next', 'Helvetica Neue', sans-serif" font-size="34" font-weight="700">Clap</text>
  <text x="503" y="792" text-anchor="middle" fill="#171412" font-family="'Avenir Next', 'Helvetica Neue', sans-serif" font-size="18">Edit</text>
  <rect x="620" y="556" width="198" height="198" rx="26" fill="white" stroke="rgba(23,20,18,0.08)"/>
  <rect x="640" y="576" width="158" height="158" rx="18" fill="#B8566B"/>
  <text x="719" y="656" text-anchor="middle" fill="white" font-family="'Avenir Next', 'Helvetica Neue', sans-serif" font-size="32" font-weight="700">Vinyl</text>
  <text x="719" y="692" text-anchor="middle" fill="white" font-family="'Avenir Next', 'Helvetica Neue', sans-serif" font-size="32" font-weight="700">Stop</text>
  <text x="719" y="792" text-anchor="middle" fill="#171412" font-family="'Avenir Next', 'Helvetica Neue', sans-serif" font-size="18">Edit</text>
  <rect x="836" y="556" width="198" height="198" rx="26" fill="white" stroke="rgba(23,20,18,0.08)"/>
  <rect x="856" y="576" width="158" height="158" rx="18" fill="#6C6257"/>
  <text x="935" y="654" text-anchor="middle" fill="white" font-family="'Avenir Next', 'Helvetica Neue', sans-serif" font-size="30" font-weight="700">Crowd</text>
  <text x="935" y="690" text-anchor="middle" fill="white" font-family="'Avenir Next', 'Helvetica Neue', sans-serif" font-size="30" font-weight="700">Cheer</text>
  <text x="935" y="792" text-anchor="middle" fill="#171412" font-family="'Avenir Next', 'Helvetica Neue', sans-serif" font-size="18">Edit</text>
  <rect x="1076" y="214" width="256" height="540" rx="28" fill="rgba(255,255,255,0.56)" stroke="rgba(23,20,18,0.11)"/>
  <text x="1112" y="268" fill="#6C6257" font-family="'IBM Plex Mono', monospace" font-size="16" letter-spacing="5">INSPECTOR</text>
  <text x="1112" y="318" fill="#171412" font-family="'Avenir Next', 'Helvetica Neue', sans-serif" font-size="40" font-weight="700">Add Sound Pad</text>
  <text x="1112" y="356" fill="#6C6257" font-family="'Avenir Next', 'Helvetica Neue', sans-serif" font-size="18">Set a label, choose a color, and attach an audio file.</text>
  <text x="1112" y="416" fill="#171412" font-family="'Avenir Next', 'Helvetica Neue', sans-serif" font-size="20" font-weight="600">Name</text>
  <rect x="1112" y="436" width="184" height="56" rx="20" fill="white" stroke="rgba(23,20,18,0.11)"/>
  <text x="1136" y="472" fill="#171412" font-family="'Avenir Next', 'Helvetica Neue', sans-serif" font-size="22">Air Horn</text>
  <text x="1112" y="536" fill="#171412" font-family="'Avenir Next', 'Helvetica Neue', sans-serif" font-size="20" font-weight="600">Audio File</text>
  <rect x="1112" y="556" width="184" height="56" rx="20" fill="white" stroke="rgba(23,20,18,0.11)"/>
  <text x="1136" y="592" fill="#6C6257" font-family="'Avenir Next', 'Helvetica Neue', sans-serif" font-size="18">air-horn.mp3</text>
  <text x="1112" y="656" fill="#171412" font-family="'Avenir Next', 'Helvetica Neue', sans-serif" font-size="20" font-weight="600">Color</text>
  <rect x="1112" y="676" width="184" height="56" rx="20" fill="white" stroke="rgba(23,20,18,0.11)"/>
  <circle cx="1142" cy="704" r="16" fill="#D95B43"/>
  <rect x="1112" y="770" width="184" height="60" rx="30" fill="#171412"/>
  <text x="1204" y="808" text-anchor="middle" fill="#FBF8F2" font-family="'Avenir Next', 'Helvetica Neue', sans-serif" font-size="22" font-weight="600">Save Pad</text>
</svg>
